<?xml version="1.0" encoding="UTF-8"?><svg xmlns="http://www.w3.org/2000/svg" xmlns:xlink="http://www.w3.org/1999/xlink" height="185.8" preserveAspectRatio="xMidYMid meet" version="1.0" viewBox="95.3 157.8 262.7 185.8" width="262.7" zoomAndPan="magnify"><g><g><path d="M 111.097656 292.679688 C 110.367188 288.75 108.269531 284.328125 105.492188 281.234375 C 103.265625 278.75 100.890625 277.546875 97.640625 279.195312 C 97.597656 279.574219 97.539062 279.949219 97.472656 280.320312 C 103.90625 287.417969 104.121094 298.355469 98.628906 306.304688 C 97.472656 307.976562 96.066406 309.554688 95.292969 311.386719 C 95.378906 312.875 95.355469 314.382812 95.371094 315.828125 C 96.863281 317.730469 100.65625 317.648438 103.574219 315.964844 C 106.015625 314.554688 107.691406 311.789062 108.835938 309.476562 C 111.359375 304.371094 112.113281 298.140625 111.097656 292.679688" fill="#f0bd2d"/></g><g><path d="M 350.589844 213.847656 L 347.5625 214.105469 L 347.46875 214.105469 L 339.46875 214.78125 L 322.042969 216.238281 L 96.945312 234.296875 L 95.394531 234.429688 L 95.308594 234.433594 C 96.164062 255.367188 100.691406 259.65625 97.542969 279.929688 L 97.660156 280.050781 C 101.144531 283.308594 106.667969 283.5 107.871094 288.847656 C 109.726562 297.113281 103.160156 307.785156 95.34375 312.699219 C 95.492188 319.820312 95.742188 325.648438 95.316406 331.070312 C 95.648438 334.726562 95.695312 338.429688 95.296875 342.042969 C 95.644531 342.480469 95.984375 342.914062 96.332031 343.351562 C 96.925781 343.496094 97.578125 343.574219 98.320312 343.546875 L 347.828125 324.742188 C 350.53125 324.664062 352.628906 322.734375 352.777344 320.261719 L 354.753906 279.6875 L 358 213.230469 L 350.589844 213.847656" fill="#f5c640"/></g><g><path d="M 358 213.230469 C 321.796875 218.816406 283.496094 223.542969 240.445312 227.34375 C 227.777344 228.460938 215.660156 229.410156 204.226562 230.210938 C 144.292969 234.425781 97.550781 234.421875 95.394531 234.429688 L 95.308594 234.433594 L 137.835938 214.636719 L 155.460938 204.949219 L 155.5625 204.898438 C 157.445312 205.433594 159.421875 205.445312 161.300781 204.9375 C 163.433594 204.808594 165.539062 204.183594 166.984375 203.230469 C 169.460938 201.59375 171.035156 199.199219 171.59375 196.621094 C 171.636719 196.425781 171.671875 196.226562 171.703125 196.027344 L 206.652344 178.949219 C 244.578125 158.109375 245.335938 157.824219 252.496094 160.464844 C 283.421875 171.902344 335.742188 190.167969 358 213.230469" fill="#f8e07e"/></g><g><path d="M 219.453125 275.113281 C 219.300781 277.910156 218.292969 280.730469 216.207031 283.289062 C 215.796875 283.792969 215.355469 284.269531 214.886719 284.710938 C 214.21875 285.34375 213.492188 285.925781 212.714844 286.4375 L 212.574219 286.535156 C 210.59375 287.816406 208.308594 288.648438 205.859375 288.914062 C 204.8125 289.035156 203.746094 289.046875 202.652344 288.941406 C 196.183594 288.324219 191.035156 283.863281 189.308594 278.066406 C 188.738281 276.203125 188.527344 274.210938 188.734375 272.160156 L 188.765625 271.957031 C 188.851562 271.117188 189.019531 270.300781 189.246094 269.507812 C 191.332031 262.183594 198.902344 257.527344 206.238281 259.070312 C 213.941406 260.691406 219.878906 267.511719 219.453125 275.113281" fill="#e6982a"/></g><g><path d="M 214.195312 282.449219 C 213.832031 283.847656 213.332031 285.191406 212.714844 286.4375 L 212.574219 286.535156 C 210.59375 287.816406 208.308594 288.648438 205.859375 288.914062 C 204.8125 289.035156 203.746094 289.046875 202.652344 288.941406 C 196.183594 288.324219 191.035156 283.863281 189.308594 278.066406 C 189.308594 274.273438 190.707031 270.417969 193.828125 267.335938 C 197.652344 263.5625 203.101562 262.523438 207.703125 264.242188 C 214.351562 266.730469 216.0625 275.25 214.195312 282.449219" fill="#edaa37"/></g><g><path d="M 299.410156 290.6875 C 299.242188 292.53125 298.585938 294.328125 297.34375 295.847656 C 297.089844 296.15625 296.8125 296.453125 296.523438 296.726562 C 296.082031 297.136719 295.601562 297.511719 295.089844 297.835938 C 293.859375 298.609375 292.449219 299.089844 290.941406 299.207031 C 290.292969 299.261719 289.636719 299.242188 288.960938 299.152344 C 283.695312 298.441406 279.871094 293.5 280.421875 288.125 L 280.441406 287.992188 C 281.027344 282.277344 285.519531 278.320312 290.953125 279.054688 C 296.359375 279.789062 299.886719 285.433594 299.410156 290.6875" fill="#e6982a"/></g><g><path d="M 297.367188 295.867188 C 296.109375 298.097656 292.886719 299.058594 290.941406 299.207031 C 284.707031 299.726562 276.5625 292.808594 284.097656 285.621094 C 286.839844 283.007812 290.949219 283.136719 293.757812 285.546875 C 295.597656 287.132812 298.492188 291.683594 297.785156 294.785156 C 297.695312 295.175781 297.554688 295.535156 297.367188 295.867188" fill="#edaa37"/></g><g><path d="M 326.746094 250.800781 C 326.75 256.25 323.601562 261.269531 316.957031 262.027344 C 316.121094 262.128906 315.269531 262.140625 314.398438 262.054688 C 307.558594 261.402344 302.433594 255.292969 302.949219 248.453125 L 302.960938 248.285156 C 303.015625 247.605469 303.132812 246.941406 303.300781 246.289062 C 303.660156 244.902344 304.261719 243.609375 305.054688 242.472656 C 308.367188 237.519531 316.785156 235.144531 321.652344 239.476562 C 324.996094 242.449219 326.742188 246.746094 326.746094 250.800781" fill="#e6982a"/></g><g><path d="M 326.328125 253.644531 C 326.140625 254.941406 325.761719 256.175781 325.21875 257.300781 L 325.101562 257.457031 C 324.785156 257.867188 324.441406 258.261719 324.085938 258.613281 C 323.523438 259.152344 322.914062 259.660156 322.265625 260.089844 C 320.714844 261.132812 318.898438 261.808594 316.957031 262.027344 C 316.121094 262.128906 315.269531 262.140625 314.398438 262.054688 C 307.558594 261.402344 302.433594 255.292969 302.949219 248.453125 L 302.953125 248.378906 C 303.15625 247.941406 303.414062 247.507812 303.726562 247.070312 C 306.6875 242.859375 312.148438 240.816406 317.007812 242.09375 C 321.5 243.269531 327.082031 248.289062 326.328125 253.644531" fill="#edaa37"/></g><g><path d="M 153.453125 305.0625 C 153.320312 306.414062 152.761719 307.773438 151.644531 309.035156 C 151.429688 309.277344 151.195312 309.507812 150.949219 309.722656 C 150.574219 310.046875 150.171875 310.339844 149.738281 310.601562 C 148.699219 311.21875 147.507812 311.617188 146.230469 311.738281 C 145.683594 311.796875 145.128906 311.796875 144.5625 311.742188 C 140.113281 311.324219 136.894531 307.652344 137.363281 303.546875 L 137.378906 303.445312 C 137.828125 299.527344 140.40625 296.253906 144.320312 296.007812 C 149.074219 295.714844 153.914062 300.324219 153.453125 305.0625" fill="#e6982a"/></g><g><path d="M 151.507812 308.949219 C 150.625 310.628906 148.230469 311.546875 146.230469 311.738281 C 145.683594 311.796875 145.128906 311.796875 144.5625 311.742188 C 141.265625 311.433594 137.644531 308.914062 137.363281 305.140625 C 137.046875 300.824219 142.167969 298.882812 145.5625 299.996094 C 147.777344 300.726562 150.914062 304.046875 151.667969 306.402344 C 151.980469 307.390625 151.882812 308.238281 151.507812 308.949219" fill="#edaa37"/></g><g><path d="M 186.066406 234.484375 C 185.40625 236.214844 183.8125 237.429688 181.984375 238.3125 C 181.3125 238.636719 180.597656 238.914062 179.894531 239.160156 C 172.320312 241.773438 159.660156 242.292969 153.109375 236.832031 C 152.238281 236.105469 151.605469 235.40625 151.183594 234.734375 C 150.292969 233.308594 150.367188 232.027344 151.085938 230.898438 C 151.574219 230.09375 152.394531 229.359375 153.410156 228.703125 C 153.917969 228.375 154.472656 228.0625 155.058594 227.765625 C 156.707031 226.945312 158.613281 226.277344 160.476562 225.75 C 162.527344 225.164062 164.511719 224.753906 165.996094 224.511719 C 166.203125 224.488281 166.398438 224.453125 166.59375 224.429688 C 170.402344 223.910156 177.261719 224.257812 181.859375 226.328125 C 184.039062 227.292969 185.710938 228.660156 186.3125 230.496094 C 186.6875 231.632812 186.660156 232.957031 186.066406 234.484375" fill="#f5da6c"/></g><g><path d="M 268.839844 199.058594 C 268.839844 199.058594 268.9375 198.929688 269.214844 198.636719 C 269.492188 198.34375 269.941406 197.875 270.734375 197.300781 C 271.507812 196.710938 272.632812 196.023438 274.226562 195.328125 C 275.816406 194.648438 277.917969 194.003906 280.597656 193.765625 C 281.289062 193.703125 281.949219 193.675781 282.570312 193.675781 C 284.351562 193.675781 285.847656 193.894531 287.0625 194.167969 C 287.882812 194.355469 288.582031 194.566406 289.171875 194.796875 C 289.765625 195 290.242188 195.246094 290.644531 195.445312 C 291.453125 195.828125 291.886719 196.214844 292.15625 196.410156 C 292.421875 196.628906 292.496094 196.726562 292.496094 196.726562 C 292.496094 196.726562 292.320312 196.707031 291.929688 196.621094 C 291.535156 196.539062 290.933594 196.371094 290.03125 196.191406 C 288.644531 195.914062 286.535156 195.449219 283.488281 195.449219 C 282.632812 195.449219 281.699219 195.484375 280.691406 195.574219 C 278.242188 195.804688 276.300781 196.296875 274.765625 196.777344 C 273.234375 197.273438 272.074219 197.714844 271.21875 198.09375 C 270.367188 198.453125 269.777344 198.703125 269.390625 198.867188 C 269.011719 199.015625 268.839844 199.058594 268.839844 199.058594" fill="#fae78c"/></g><g><path d="M 293.417969 204.5625 C 292.898438 205.628906 291.925781 206.523438 290.644531 207.238281 C 285.128906 210.347656 274.003906 210.199219 269.847656 207.160156 C 264.789062 203.460938 267.441406 199.878906 271.402344 197.589844 C 273.160156 196.585938 275.175781 195.828125 276.894531 195.421875 C 277.15625 195.363281 277.410156 195.308594 277.671875 195.257812 C 278.757812 195.0625 279.851562 194.910156 280.945312 194.796875 C 281.359375 194.753906 281.785156 194.722656 282.199219 194.703125 L 282.304688 194.703125 C 282.636719 194.683594 282.953125 194.671875 283.285156 194.660156 C 286.394531 194.574219 289.898438 194.972656 292.238281 196.808594 C 292.460938 196.980469 292.65625 197.15625 292.855469 197.34375 L 292.898438 197.378906 L 293.0625 197.542969 L 293.214844 197.726562 L 293.417969 197.964844 L 293.429688 197.976562 C 294.8125 199.878906 294.476562 202.394531 293.417969 204.5625" fill="#f8ca45"/></g><g><path d="M 293.417969 204.5625 C 292.898438 205.628906 291.925781 206.523438 290.644531 207.238281 C 289.703125 202.808594 284.933594 199.265625 279.960938 198.109375 C 277.140625 197.464844 274.273438 197.390625 271.402344 197.589844 C 273.160156 196.585938 275.175781 195.828125 276.894531 195.421875 C 277.15625 195.363281 277.410156 195.308594 277.671875 195.257812 C 278.757812 195.0625 279.851562 194.910156 280.945312 194.796875 C 281.359375 194.753906 281.785156 194.722656 282.199219 194.703125 L 282.304688 194.703125 C 282.636719 194.683594 282.953125 194.671875 283.285156 194.660156 C 286.851562 194.609375 290.148438 195.230469 292.238281 196.808594 C 292.460938 196.980469 292.65625 197.15625 292.855469 197.34375 L 292.898438 197.378906 L 293.0625 197.542969 L 293.214844 197.726562 L 293.417969 197.964844 L 293.429688 197.976562 C 294.8125 199.878906 294.476562 202.394531 293.417969 204.5625" fill="#edaa37"/></g><g><path d="M 272.742188 223.949219 C 333.21875 216.910156 349.339844 214.035156 349.339844 214.035156 C 349.339844 214.035156 337.730469 214.066406 272.921875 221.585938 C 207.300781 229.195312 188.425781 231.257812 188.425781 231.257812 C 188.425781 231.257812 207.378906 231.554688 272.742188 223.949219" fill="#f8e9ab"/></g><g><path d="M 127.433594 235.292969 C 144.453125 234.515625 149.019531 233.300781 149.019531 233.300781 C 149.019531 233.300781 145.640625 232.769531 127.386719 233.589844 C 109.085938 234.410156 98.554688 234.726562 98.554688 234.726562 C 98.554688 234.726562 109.203125 236.121094 127.433594 235.292969" fill="#f8e9ab"/></g><g><path d="M 358 213.230469 C 337.832031 192.335938 292.984375 175.375 261.734375 163.867188 C 267.707031 165.773438 273.273438 166.558594 275.664062 167.570312 C 300.789062 178.054688 339.527344 194.089844 358 213.230469 M 256.570312 161.96875 C 255.191406 161.460938 253.851562 160.964844 252.546875 160.484375 C 253.828125 160.882812 255.152344 161.402344 256.570312 161.96875" fill="#f8efcb"/></g><g><path d="M 349.625 282.222656 C 350.339844 269.886719 351.128906 257.648438 351.703125 245.457031 C 352.121094 236.503906 354.855469 223.082031 350.820312 214.324219 C 353.222656 213.964844 355.617188 213.601562 358 213.230469 L 354.753906 279.6875 C 352.851562 280.628906 351.121094 281.484375 349.625 282.222656" fill="#eeba33"/></g><g><path d="M 350.820312 214.324219 C 350.746094 214.164062 350.667969 214.003906 350.589844 213.847656 C 345.269531 202.890625 328.304688 194.960938 317.78125 189.105469 C 316.09375 188.167969 269.347656 165.0625 243.339844 160.710938 C 244.96875 159.984375 246.484375 159.683594 247.976562 159.683594 C 249.496094 159.683594 250.988281 159.996094 252.546875 160.484375 C 253.851562 160.964844 255.191406 161.460938 256.570312 161.96875 C 257.277344 162.246094 258.011719 162.539062 258.773438 162.832031 C 259.761719 163.210938 260.753906 163.554688 261.734375 163.867188 C 292.984375 175.375 337.832031 192.335938 358 213.230469 C 355.617188 213.601562 353.222656 213.964844 350.820312 214.324219" fill="#f1d264"/></g><g><path d="M 215.835938 200.839844 C 215.457031 200.839844 215.078125 200.796875 214.699219 200.710938 C 215.132812 198.1875 213.070312 195.664062 210.460938 194.558594 C 208.835938 193.875 206.949219 193.621094 205.074219 193.621094 C 203.929688 193.621094 202.785156 193.714844 201.714844 193.863281 C 203.925781 190.828125 208.074219 189.359375 212.121094 188.878906 C 212.8125 188.796875 213.601562 188.75 214.421875 188.75 C 215.957031 188.75 217.589844 188.917969 218.824219 189.347656 C 223.304688 190.898438 223.058594 195.1875 220.644531 198.390625 C 219.578125 199.808594 217.730469 200.839844 215.835938 200.839844" fill="#fae78c"/></g><g><path d="M 221.488281 196.019531 C 221.402344 196.433594 221.246094 196.820312 221.054688 197.191406 C 218.757812 201.679688 210.679688 200.847656 206.320312 199.511719 C 202.660156 198.390625 199.441406 194.691406 203.664062 192.125 C 205.320312 191.117188 207.335938 190.316406 209.425781 189.808594 C 215.914062 188.210938 223.007812 189.410156 221.488281 196.019531" fill="#f8ca45"/></g><g><path d="M 221.488281 196.019531 C 221.402344 196.433594 221.246094 196.820312 221.054688 197.191406 C 220.328125 195.503906 219.226562 194.023438 217.53125 193.003906 C 215.035156 191.480469 211.824219 191.363281 208.839844 191.542969 C 207.097656 191.652344 205.378906 191.84375 203.664062 192.125 C 205.320312 191.117188 207.335938 190.316406 209.425781 189.808594 C 215.914062 188.210938 223.007812 189.410156 221.488281 196.019531" fill="#edaa37"/></g><g><path d="M 260.648438 182.566406 C 258.527344 182.566406 256.429688 182.214844 254.734375 181.484375 C 251.226562 179.980469 249.179688 177.152344 251.4375 175.28125 C 251.714844 175.027344 252.101562 174.796875 252.554688 174.582031 C 252.894531 174.429688 253.25 174.28125 253.628906 174.144531 C 255.046875 173.605469 256.675781 173.171875 258.351562 172.894531 C 259.839844 172.640625 261.367188 172.503906 262.824219 172.503906 C 267.761719 172.503906 271.867188 174.082031 270.832031 178.089844 C 270.757812 178.40625 270.609375 178.707031 270.429688 178.992188 C 270.125 179.441406 269.726562 179.847656 269.246094 180.210938 L 269.117188 180.308594 C 268.765625 180.566406 268.371094 180.800781 267.953125 181.007812 L 267.890625 181.042969 C 267.789062 181.089844 267.6875 181.144531 267.585938 181.1875 C 267.28125 181.320312 266.980469 181.453125 266.65625 181.5625 C 264.878906 182.21875 262.753906 182.566406 260.648438 182.566406" fill="#fae78c"/></g><g><path d="M 270.140625 178.25 C 270.066406 178.554688 269.925781 178.84375 269.75 179.117188 C 269.457031 179.546875 269.070312 179.933594 268.609375 180.285156 L 268.484375 180.375 C 268.394531 180.441406 268.296875 180.515625 268.199219 180.566406 L 268.125 180.609375 C 267.886719 180.773438 267.628906 180.914062 267.359375 181.046875 L 267.296875 181.082031 C 267.199219 181.121094 267.101562 181.175781 267.003906 181.21875 C 266.710938 181.347656 266.417969 181.472656 266.105469 181.578125 C 262.660156 182.839844 257.847656 182.894531 254.578125 181.492188 C 251.1875 180.046875 249.207031 177.335938 251.386719 175.542969 C 251.65625 175.300781 252.027344 175.078125 252.46875 174.871094 C 252.800781 174.726562 253.140625 174.585938 253.503906 174.453125 L 253.695312 174.390625 C 254.378906 174.136719 255.113281 173.90625 255.871094 173.714844 C 256.578125 173.535156 257.320312 173.382812 258.066406 173.257812 C 264.398438 172.199219 271.433594 173.277344 270.140625 178.25" fill="#f8ca45"/></g><g><path d="M 270.140625 178.25 C 270.066406 178.554688 269.925781 178.84375 269.75 179.117188 C 269.457031 179.546875 269.070312 179.933594 268.609375 180.285156 L 268.484375 180.375 C 268.394531 180.441406 268.296875 180.515625 268.199219 180.566406 L 268.125 180.609375 C 267.917969 178.859375 266.703125 177.128906 265.054688 176.066406 C 262.730469 174.566406 259.761719 174.15625 256.953125 174.195312 C 255.859375 174.210938 254.785156 174.292969 253.695312 174.390625 C 254.378906 174.136719 255.113281 173.90625 255.871094 173.714844 C 256.578125 173.535156 257.320312 173.382812 258.066406 173.257812 C 264.398438 172.199219 271.433594 173.277344 270.140625 178.25" fill="#edaa37"/></g><g><path d="M 109.230469 290.96875 C 109.015625 289.230469 108.433594 287.695312 107.707031 286.417969 C 106.957031 285.152344 106.066406 284.144531 105.175781 283.351562 C 103.378906 281.761719 101.632812 280.996094 100.324219 280.558594 C 99.03125 280.132812 98.113281 280.042969 97.535156 279.988281 C 97.519531 280.089844 97.496094 280.191406 97.476562 280.289062 C 97.996094 280.503906 98.789062 280.792969 99.863281 281.363281 C 100.976562 281.96875 102.417969 282.847656 103.886719 284.351562 C 105.332031 285.855469 106.8125 288.015625 107.230469 291.066406 C 107.429688 292.492188 107.367188 293.820312 107.214844 295.019531 C 107.070312 296.226562 106.804688 297.300781 106.515625 298.253906 C 105.925781 300.160156 105.242188 301.582031 104.695312 302.644531 C 104.140625 303.703125 103.710938 304.414062 103.433594 304.855469 C 103.15625 305.300781 103.058594 305.5 103.058594 305.5 C 103.058594 305.5 103.210938 305.425781 103.582031 305.144531 C 103.957031 304.863281 104.546875 304.367188 105.324219 303.453125 C 106.101562 302.539062 107.078125 301.203125 107.949219 299.191406 C 108.777344 297.191406 109.648438 294.464844 109.230469 290.96875" fill="#f8de75"/></g><g><path d="M 203.324219 289.773438 C 203.300781 289.773438 203.277344 289.773438 203.257812 289.773438 C 203.253906 289.773438 203.25 289.773438 203.246094 289.773438 C 201.457031 289.773438 199.46875 289.511719 197.40625 288.707031 C 195.191406 287.851562 193.421875 286.5 192.027344 285.0625 C 190.636719 283.621094 189.628906 282.066406 188.910156 280.570312 C 187.480469 277.558594 187.269531 274.847656 187.386719 272.933594 C 187.523438 270.996094 187.925781 269.769531 188.214844 269.046875 C 188.515625 268.316406 188.652344 268.046875 188.652344 268.046875 C 188.652344 268.046875 188.605469 268.367188 188.449219 269.132812 C 188.308594 269.898438 188.113281 271.144531 188.191406 272.96875 C 188.257812 274.402344 188.535156 276.230469 189.367188 278.257812 C 191.152344 283.960938 196.253906 288.332031 202.652344 288.941406 C 203.152344 288.988281 203.652344 289.015625 204.144531 289.015625 C 204.722656 289.015625 205.292969 288.980469 205.859375 288.914062 C 208.308594 288.648438 210.59375 287.816406 212.574219 286.535156 L 212.714844 286.4375 C 213.492188 285.925781 214.21875 285.34375 214.886719 284.710938 C 214.976562 284.628906 215.0625 284.542969 215.148438 284.457031 C 215.152344 284.453125 215.15625 284.453125 215.160156 284.449219 C 215.421875 284.265625 215.65625 284.101562 215.867188 283.949219 C 216.304688 283.667969 216.609375 283.414062 216.851562 283.230469 C 217.335938 282.863281 217.523438 282.757812 217.523438 282.757812 C 217.523438 282.757812 217.34375 283.003906 216.867188 283.585938 C 216.398438 284.167969 215.574219 285.027344 214.210938 286.089844 C 212.832031 287.125 210.847656 288.308594 208.046875 289.09375 C 206.671875 289.480469 205.09375 289.773438 203.324219 289.773438" fill="#f8d347"/></g><g><path d="M 212.714844 286.4375 C 212.839844 286.183594 212.960938 285.925781 213.078125 285.660156 C 213.515625 285.433594 213.90625 285.210938 214.261719 285.003906 C 214.585938 284.804688 214.882812 284.621094 215.148438 284.457031 C 215.0625 284.542969 214.976562 284.628906 214.886719 284.710938 C 214.21875 285.34375 213.492188 285.925781 212.714844 286.4375" fill="#ecaf2e"/></g><g><path d="M 204.144531 289.015625 C 203.652344 289.015625 203.152344 288.988281 202.652344 288.941406 C 196.253906 288.332031 191.152344 283.960938 189.367188 278.257812 C 189.585938 278.792969 189.84375 279.339844 190.144531 279.898438 C 190.875 281.222656 191.859375 282.597656 193.171875 283.871094 C 194.476562 285.144531 196.128906 286.3125 198.128906 287.0625 C 200.105469 287.808594 202.007812 288.046875 203.714844 288.046875 C 203.742188 288.046875 203.769531 288.046875 203.800781 288.046875 C 205.53125 288.03125 207.066406 287.792969 208.402344 287.457031 C 210.359375 286.949219 211.882812 286.285156 213.078125 285.660156 C 212.960938 285.925781 212.839844 286.183594 212.714844 286.4375 L 212.574219 286.535156 C 210.59375 287.816406 208.308594 288.648438 205.859375 288.914062 C 205.292969 288.980469 204.722656 289.015625 204.144531 289.015625" fill="#f2bd3d"/></g><g><path d="M 289.03125 301.515625 C 287.644531 301.515625 286.058594 301.214844 284.414062 300.304688 C 281.660156 298.722656 280.300781 296.25 279.671875 294.304688 C 279.03125 292.3125 279.0625 290.683594 279.226562 289.542969 C 279.628906 287.242188 280.328125 286.742188 280.269531 286.726562 C 280.324219 286.726562 280.136719 287.519531 280.296875 289.625 C 280.40625 290.664062 280.636719 292.058594 281.367188 293.664062 C 282.078125 295.246094 283.324219 297.144531 285.480469 298.335938 C 287.003906 299.15625 288.472656 299.398438 289.738281 299.398438 C 290.28125 299.398438 290.789062 299.355469 291.246094 299.289062 C 292.796875 299.078125 293.890625 298.585938 294.683594 298.214844 C 295.476562 297.828125 295.976562 297.515625 296.289062 297.335938 C 296.601562 297.152344 296.742188 297.113281 296.742188 297.113281 C 296.742188 297.113281 296.671875 297.285156 296.445312 297.679688 C 296.21875 298.070312 295.796875 298.664062 295.003906 299.367188 C 294.203125 300.0625 292.984375 300.832031 291.203125 301.273438 C 290.558594 301.414062 289.828125 301.515625 289.03125 301.515625" fill="#f8d347"/></g><g><path d="M 315.179688 262.183594 C 313.164062 262.183594 310.695312 261.863281 308.046875 260.503906 C 304.78125 258.835938 302.761719 256.144531 301.984375 253.742188 C 301.167969 251.34375 301.3125 249.351562 301.605469 247.988281 C 301.9375 246.613281 302.429688 245.816406 302.742188 245.355469 C 303.082031 244.910156 303.238281 244.757812 303.238281 244.757812 C 303.238281 244.757812 303.15625 244.976562 302.960938 245.492188 C 302.78125 246.019531 302.503906 246.871094 302.394531 248.171875 C 302.320312 249.460938 302.40625 251.242188 303.273438 253.296875 C 303.535156 253.9375 303.894531 254.59375 304.351562 255.238281 C 306.28125 258.9375 309.984375 261.632812 314.398438 262.054688 C 314.789062 262.09375 315.171875 262.109375 315.554688 262.109375 C 316.027344 262.109375 316.496094 262.082031 316.957031 262.027344 C 319.007812 261.792969 320.722656 261.15625 322.117188 260.222656 C 322.796875 260.132812 323.269531 260.066406 323.597656 260.039062 C 323.890625 260.007812 324.058594 260.003906 324.140625 260.003906 C 324.179688 260.003906 324.199219 260.003906 324.199219 260.003906 C 324.199219 260.003906 324.007812 260.113281 323.523438 260.339844 C 323.042969 260.554688 322.269531 260.886719 321.078125 261.257812 C 319.886719 261.617188 318.273438 262.035156 316.09375 262.160156 C 315.800781 262.175781 315.496094 262.183594 315.179688 262.183594" fill="#f8d347"/></g><g><path d="M 316.957031 262.027344 C 318.808594 261.816406 320.542969 261.195312 322.046875 260.234375 C 322.070312 260.230469 322.09375 260.226562 322.117188 260.222656 C 320.722656 261.15625 319.007812 261.792969 316.957031 262.027344" fill="#ecaf2e"/></g><g><path d="M 315.554688 262.109375 C 315.171875 262.109375 314.789062 262.09375 314.398438 262.054688 C 309.984375 261.632812 306.28125 258.9375 304.351562 255.238281 C 305.351562 256.652344 306.835938 258.015625 308.851562 259.035156 C 311.808594 260.5 314.472656 260.695312 316.539062 260.710938 C 318.617188 260.699219 320.164062 260.472656 321.296875 260.335938 C 321.570312 260.296875 321.820312 260.265625 322.046875 260.234375 C 320.542969 261.195312 318.808594 261.816406 316.957031 262.027344 C 316.496094 262.082031 316.027344 262.109375 315.554688 262.109375" fill="#f2bd3d"/></g><g><path d="M 170.320312 241.296875 C 169.886719 241.296875 169.445312 241.285156 168.992188 241.269531 C 168.023438 241.226562 167.101562 241.144531 166.230469 241.027344 C 166.761719 241.050781 167.292969 241.0625 167.820312 241.0625 C 172.195312 241.0625 176.542969 240.316406 179.894531 239.160156 C 180.597656 238.914062 181.3125 238.636719 181.984375 238.3125 C 182.722656 237.957031 183.421875 237.546875 184.035156 237.070312 C 184.320312 236.964844 184.554688 236.886719 184.746094 236.839844 C 185.195312 236.707031 185.371094 236.6875 185.371094 236.6875 C 185.371094 236.6875 185.203125 236.828125 184.773438 237.144531 C 184.335938 237.460938 183.648438 237.976562 182.492188 238.550781 C 181.363281 239.171875 179.746094 239.8125 177.546875 240.429688 C 175.617188 240.898438 173.214844 241.296875 170.320312 241.296875" fill="#f8d347"/></g><g><path d="M 167.820312 241.0625 C 167.292969 241.0625 166.761719 241.050781 166.230469 241.027344 C 163.757812 240.699219 161.695312 240.105469 160.027344 239.464844 C 157.78125 238.574219 156.1875 237.679688 155.105469 236.890625 C 153.992188 236.136719 153.371094 235.507812 152.988281 235.121094 C 152.601562 234.734375 152.472656 234.5625 152.472656 234.5625 C 152.472656 234.5625 152.6875 234.65625 153.1875 234.914062 C 153.6875 235.175781 154.453125 235.617188 155.664062 236.167969 C 156.847656 236.746094 158.488281 237.414062 160.683594 238.097656 C 162.882812 238.761719 165.703125 239.378906 169.210938 239.511719 C 169.683594 239.527344 170.144531 239.535156 170.59375 239.535156 C 173.453125 239.535156 175.773438 239.210938 177.632812 238.855469 C 178.167969 238.746094 178.667969 238.640625 179.136719 238.542969 C 179.597656 238.417969 180.023438 238.304688 180.425781 238.195312 C 181.234375 238.007812 181.886719 237.765625 182.453125 237.589844 C 183.125 237.402344 183.636719 237.214844 184.035156 237.070312 C 183.421875 237.546875 182.722656 237.957031 181.984375 238.3125 C 181.3125 238.636719 180.597656 238.914062 179.894531 239.160156 C 176.542969 240.316406 172.195312 241.0625 167.820312 241.0625" fill="#f8e278"/></g><g><path d="M 204.898438 285.996094 C 202.691406 285.996094 200.472656 285.511719 198.554688 284.542969 C 195.847656 283.179688 191.382812 278.738281 192.992188 275.65625 C 196.941406 278.519531 201.929688 280.167969 206.945312 280.269531 C 207.964844 280.289062 209.023438 280.257812 209.984375 280.554688 C 210.117188 280.59375 210.246094 280.644531 210.375 280.695312 C 213.40625 281.992188 211.167969 284.746094 209.003906 285.402344 C 207.699219 285.800781 206.300781 285.996094 204.898438 285.996094" fill="#f4bf47"/></g><g><path d="M 314.621094 260.210938 C 313.738281 260.210938 312.921875 260.117188 312.28125 259.933594 C 309.496094 259.136719 305.554688 254.835938 306.921875 251.929688 C 306.777344 252.230469 312.441406 255.46875 313.210938 255.691406 C 315.550781 256.363281 318.113281 255.90625 320.46875 256.808594 C 320.773438 256.925781 321.082031 257.0625 321.402344 257.226562 C 320.617188 259.3125 317.3125 260.210938 314.621094 260.210938" fill="#f4bf47"/></g><g><path d="M 289.664062 296.761719 C 287 296.761719 284.304688 295.191406 282.820312 292.523438 C 282.53125 292.003906 282.867188 291.386719 283.289062 291.386719 C 283.398438 291.386719 283.511719 291.425781 283.621094 291.519531 C 285.960938 293.496094 288.300781 294.3125 290.855469 294.3125 C 291.878906 294.3125 292.9375 294.179688 294.042969 293.941406 C 294.066406 293.9375 294.089844 293.9375 294.113281 293.9375 C 294.453125 293.9375 294.613281 294.503906 294.339844 294.78125 C 293 296.140625 291.339844 296.761719 289.664062 296.761719" fill="#f4bf47"/></g><g><path d="M 145.023438 309.902344 C 142.480469 309.902344 139.769531 307.136719 140.5 304.4375 C 140.578125 304.140625 140.859375 303.984375 141.132812 303.984375 C 141.332031 303.984375 141.527344 304.066406 141.644531 304.230469 C 142.246094 305.105469 142.644531 306.085938 143.460938 306.789062 C 144.296875 307.507812 145.292969 307.710938 146.28125 308.078125 C 146.910156 308.3125 146.945312 309.363281 146.296875 309.644531 C 145.890625 309.820312 145.460938 309.902344 145.023438 309.902344" fill="#f4bf47"/></g><g><path d="M 95.371094 342.136719 C 95.34375 342.105469 95.320312 342.070312 95.292969 342.039062 C 95.382812 341.210938 95.453125 340.378906 95.503906 339.539062 C 95.457031 340.378906 95.390625 341.214844 95.296875 342.042969 C 95.320312 342.074219 95.34375 342.105469 95.371094 342.136719" fill="#fff5d9"/></g><g><path d="M 98.011719 343.554688 C 97.398438 343.554688 96.84375 343.476562 96.332031 343.351562 C 96.011719 342.945312 95.691406 342.539062 95.371094 342.136719 C 95.34375 342.105469 95.320312 342.074219 95.296875 342.042969 C 95.390625 341.214844 95.457031 340.378906 95.503906 339.539062 C 95.5625 338.539062 95.589844 337.53125 95.585938 336.523438 C 113.210938 334.152344 132.121094 323.511719 149.378906 322.511719 C 184.871094 320.472656 219.9375 322.78125 254.636719 316.441406 C 286.511719 310.621094 316.921875 299.980469 344.0625 285.039062 C 344.902344 284.574219 346.882812 283.585938 349.625 282.222656 C 348.835938 295.804688 348.128906 309.476562 347.890625 323.277344 C 347.894531 323.457031 347.859375 323.988281 347.828125 324.742188 C 350.414062 324.664062 352.449219 322.898438 352.746094 320.578125 C 352.449219 322.898438 350.414062 324.667969 347.828125 324.742188 L 98.320312 343.546875 C 98.214844 343.550781 98.113281 343.554688 98.011719 343.554688 M 352.777344 320.261719 L 354.753906 279.6875 C 354.753906 279.691406 354.753906 279.691406 354.753906 279.6875 L 352.777344 320.261719" fill="#f5be36"/></g><g><path d="M 347.828125 324.742188 C 347.859375 323.988281 347.894531 323.457031 347.890625 323.277344 C 348.128906 309.476562 348.835938 295.804688 349.625 282.222656 C 351.121094 281.484375 352.851562 280.628906 354.753906 279.691406 L 352.777344 320.261719 C 352.769531 320.367188 352.761719 320.472656 352.746094 320.578125 C 352.449219 322.898438 350.414062 324.664062 347.828125 324.742188" fill="#eeb32b"/></g><g><path d="M 186.066406 234.484375 C 185.40625 236.214844 183.8125 237.429688 181.984375 238.3125 C 176.886719 231.714844 159.222656 222.902344 151.273438 231.328125 C 158.113281 224.078125 172.410156 222.070312 181.859375 226.328125 C 184.039062 227.292969 185.710938 228.660156 186.3125 230.496094 C 186.6875 231.632812 186.660156 232.957031 186.066406 234.484375" fill="#f5c438"/></g><g><path d="M 160.847656 206.132812 C 158.984375 206.132812 157.109375 205.730469 155.460938 204.949219 L 155.5625 204.898438 C 156.527344 205.171875 157.519531 205.3125 158.507812 205.3125 C 159.449219 205.3125 160.386719 205.1875 161.300781 204.9375 C 163.433594 204.808594 165.539062 204.183594 166.984375 203.230469 C 169.460938 201.59375 171.035156 199.199219 171.59375 196.621094 C 171.523438 200 169.40625 203.308594 166.089844 204.953125 C 164.5 205.746094 162.679688 206.132812 160.847656 206.132812" fill="#f1cd56"/></g></g></svg>