<?xml version="1.0" encoding="UTF-8"?><svg xmlns="http://www.w3.org/2000/svg" xmlns:xlink="http://www.w3.org/1999/xlink" height="984.8" preserveAspectRatio="xMidYMid meet" version="1.0" viewBox="-8.3 -0.0 824.4 984.8" width="824.4" zoomAndPan="magnify"><g><g><g id="change1_1"><path d="M815.4,879.4c0,3-0.2,5.9-0.6,8.7c-7,55.1-73.2,85-121,90c-63.7,6.7-71.7,1.3-158.4,0 c-141.3-2.2-170,3.1-400.1-29.3c-19-2.7-36.4-5.4-52-8.5c-44.4-8.9-73.8-21-81.4-44.8c-10.2-31.8,23.6-68.7,32-77.3 c23.7-24.3,57.8-41.5,170.7-50.7c107.4-8.7,128.5,2.5,250.7-5.3c52.3-3.4,63.1-6.4,114.7-8c134.1-4.2,165.4,12.8,178.7,21.3 C756.4,780.3,816.1,819.9,815.4,879.4z" fill="#875c3a"/></g><g id="change1_2"><path d="M684.7,795.4c-14.1,20.2-38.5,17.7-138.7,21.3c-116.3,4.2-114.6,8.7-194.7,8c-123.5-1-146.1-11.9-162.7-24 c-6.7-4.9-12.8-10.3-18.2-16c-24.3-25.2-36.4-55.3-43.1-72c-14.4-35.6-2-39.6,12-65.2c25.3-46.4,80.6-26.8,109.4-24.1 c47.8,4.5,67.5,8.9,100,10.7c120,6.7,133.5,5.1,170.7,12c88.7,16.3,106.3,5.8,133.4,29.3c11.4,9.9,21,22.8,28,36.8 C695.4,741.2,698.9,774.9,684.7,795.4z" fill="#875c3a"/></g><g id="change1_3"><path d="M649.6,570.7c-0.1,4.6-0.2,9.4-0.3,14.6c-1.1,47.5-29.7,70.4-42.7,80c-12.5,9.3-28.8,4.5-50.7,0 c0,0-37.3-7.6-121.4-10.7c-70-2.5-87.3,12.2-136-2.7c-23.1-7-39.6-16.5-49.9-32.9c-2.1-3.3-3.8-6.7-5.1-10 c-6.3-15.3-5.3-29.2-4.9-33.1c0.3-3.3,3-27.8,21.3-44c13.9-12.3,29.1-13,80-13.3c48.3-0.3,70.9,0.2,101.3-1.3 c61.5-3.1,74.1-10.6,81.4-20c10.2-13.2,9.8-30.3,9.3-48c-1-40.1-18.3-63.4-12-68c6.1-4.5,26.9,14.4,36,22.7 c31.6,28.9,51.3,48,73.3,78.7c4.7,6.5,7.2,8,9.8,12.3c5.5,9,6.9,17.6,7.8,24.7C649.5,538.9,649.9,553.2,649.6,570.7z" fill="#875c3a"/></g><g id="change2_1"><path d="M649.6,570.7c-0.1,4.6-0.2,9.4-0.3,14.6c-1.1,47.5-29.7,70.4-42.7,80c-12.5,9.3-28.8,4.5-50.7,0 c0,0-37.3-7.6-121.4-10.7c-70-2.5-87.3,12.2-136-2.7c-23.1-7-39.6-16.5-49.9-32.9c-2.1-3.3-3.8-6.7-5.1-10 c5.8,0.5,14.8,1.4,25.8,2.9c23.3,3.3,40.2,7.5,45.3,8.7c35.2,8.3,78.3,10.3,116,12c40.9,1.9,67.2,0.6,94-0.7 c19.8-1,40.6-2.5,65.3-11.3c14.4-5.1,24.9-9,36-18.7C629,599.4,642,587.6,649.6,570.7z" fill="#563823"/></g><g id="change2_2"><path d="M684.7,795.4c-14.1,20.2-38.5,17.7-138.7,21.3c-116.3,4.2-114.6,8.7-194.7,8c-123.5-1-146.1-11.9-162.7-24 c-6.7-4.9-12.8-10.3-18.2-16c5.7-2.2,11.4-3.6,14.5-4.4c47.3-11.7,90,6,106,12c66,24.8,132,15.9,264-2c70.2-9.5,101.2-21.7,115-47 c5.3-9.6,8.1-21.3,10.7-31.2C695.4,741.2,698.9,774.9,684.7,795.4z" fill="#563823"/></g><g id="change2_3"><path d="M814.8,888.1c-7,55.1-73.2,85-121,90c-63.7,6.7-71.7,1.3-158.4,0c-141.3-2.2-170,3.1-400.1-29.3 c-19-2.7-36.4-5.4-52-8.5c18.9-6.5,43.4-9.1,50.7-9.8c73.2-7.6,110.8,18.2,174,32c25.9,5.7,88,0.8,212-9 c112.9-8.9,170.2-13.6,211-29C767.4,910.7,796.2,894.3,814.8,888.1z" fill="#563823"/></g></g><g id="change3_1"><path d="M239.3,404.4c1.7-2.4,3.5-4.8,5.3-7.1l1.3-1.7l1.3-1.8c0.8-1.2,1.7-2.4,2.6-3.6l1.3-1.8l0.6-0.9 c0.2-0.3,0.4-0.6,0.6-0.9l2.4-3.6c0.8-1.2,1.7-2.4,2.4-3.6l2.3-3.7c0.8-1.2,1.6-2.4,2.3-3.7l2.1-3.7l1.1-1.9l0.5-0.9l0.5-0.9 l1.9-3.8l1-1.9l0.9-1.9l1.7-3.8c0.5-1.3,1-2.6,1.5-3.9l0.8-1.9c0.3-0.6,0.4-1.3,0.7-2l1.3-3.9l1-4l0.3-1c0.1-0.3,0.1-0.7,0.2-1 l0.4-2l0.4-2l0.3-2c0.7-5.3,0.9-10.6,0.4-15.8c-0.5-5.2-1.6-10.3-3.3-15.3c-0.5-1.2-0.9-2.5-1.4-3.7l-0.8-1.8l-0.8-1.8 c-0.5-1.2-1.2-2.4-1.8-3.6c-0.6-1.2-1.3-2.4-2-3.6c-1.4-2.4-2.8-4.8-4.3-7.2c-0.7-1.2-1.5-2.4-2.3-3.6l-2.4-3.6 c-3.2-4.9-6.4-9.9-9.5-15.3c-1.5-2.7-3-5.4-4.3-8.3c-1.3-2.9-2.6-5.8-3.6-8.8c-1.1-3-1.9-6.1-2.6-9.2c-0.6-3.2-1.1-6.3-1.3-9.5 c-0.9-12.8,1.7-25.5,6.9-36.7c2.6-5.6,5.8-10.8,9.4-15.6c1.8-2.4,3.7-4.7,5.7-6.9c2-2.2,4.1-4.3,6.3-6.3c-1.5,2.6-3,5.1-4.3,7.7 c-1.4,2.6-2.7,5.2-3.9,7.8c-1.2,2.6-2.3,5.3-3.3,8c-0.5,1.3-0.9,2.7-1.4,4c-0.4,1.4-0.8,2.7-1.2,4.1c-0.3,1.4-0.7,2.7-1,4.1l-0.4,2 l-0.2,1c-0.1,0.3-0.1,0.7-0.2,1c-0.4,2.7-0.8,5.5-0.9,8.2c0,1.4-0.2,2.7-0.1,4.1l0,2c0,0.3,0,0.7,0,1l0.1,1c0.1,1.3,0.1,2.7,0.3,4 l0.2,2l0.3,2c0.9,5.3,2.5,10.3,4.6,15.2c0.3,0.6,0.5,1.2,0.8,1.8l0.9,1.8c0.6,1.2,1.2,2.4,1.9,3.6c1.3,2.4,2.7,4.8,4.2,7.1 c5.9,9.5,13.2,18.8,19.3,29.7c3,5.4,5.7,11.3,7.7,17.4c2,6.2,3.2,12.7,3.5,19.2c0.3,6.5-0.3,13-1.7,19.3c-1.4,6.2-3.4,12.3-6,17.9 c-0.3,0.7-0.6,1.4-1,2.1l-1.1,2.1c-0.7,1.4-1.4,2.7-2.2,4.1l-2.4,3.9l-1.2,2l-1.3,1.9l-2.6,3.7l-0.7,0.9l-0.7,0.9l-1.4,1.8 l-2.8,3.5c-1,1.2-2,2.3-3,3.4l-3,3.3c-1,1.1-2.1,2.1-3.2,3.2l-3.2,3.2c-0.5,0.5-1.1,1-1.6,1.5l-1.7,1.5c-1.1,1-2.2,2-3.3,3 l-1.7,1.5l-1.7,1.4C244,400.8,241.7,402.6,239.3,404.4z" fill="#b3b3b3"/></g><g id="change3_2"><path d="M419.6,304.1c1.6-3.1,3.3-6,5-9c0.4-0.7,0.9-1.5,1.3-2.2l1.2-2.3c0.8-1.5,1.6-3,2.4-4.5c1.7-2.9,3.1-6,4.6-9 c0.7-1.5,1.6-3,2.3-4.5l2.1-4.5c0.7-1.5,1.5-3,2.1-4.5l1.9-4.6l1-2.3c0.3-0.7,0.6-1.5,0.9-2.3l1.7-4.6l0.8-2.3 c0.2-0.8,0.5-1.5,0.7-2.3l1.5-4.6c0.5-1.5,0.8-3.1,1.3-4.6c0.4-1.6,0.9-3.1,1.2-4.6l1-4.6c0.3-1.5,0.5-3.1,0.8-4.7 c0.1-0.8,0.2-1.5,0.4-2.3l0.3-2.3l0.3-2.3c0.1-0.8,0.2-1.5,0.2-2.3c0.5-6.2,0.3-12.3-0.3-18.3c-0.1-1.5-0.4-3-0.6-4.5 c-0.2-1.5-0.5-3-0.8-4.5c-0.7-2.9-1.4-5.9-2.3-8.7c-0.9-2.9-1.9-5.8-3.1-8.6c-1.2-2.9-2.5-5.7-3.9-8.6c-1.4-2.9-2.9-5.7-4.4-8.7 l-4.7-8.9c-3.2-6-6.4-12.3-9.3-18.7c-5.8-13-10.1-26.9-12.2-41c-4.3-28.1-1.2-56.9,9-82.4c-0.2,6.9-0.4,13.7-0.3,20.4 c0.1,6.7,0.4,13.4,1,20c1.2,13.2,3.5,26.1,6.9,38.6c0.4,1.6,0.9,3.1,1.3,4.6c0.4,1.5,1,3.1,1.5,4.6c0.5,1.5,1,3,1.6,4.5 c0.5,1.5,1.1,3,1.7,4.5c2.4,5.9,5.1,11.7,8,17.5c3,5.7,6.2,11.4,9.5,17.3c3.3,5.9,6.7,11.9,9.9,18.3c3.1,6.4,6,13.3,8,20.5l0.7,2.7 l0.6,2.7c0.5,1.8,0.8,3.7,1.1,5.5c0.3,1.9,0.6,3.7,0.8,5.6c0.2,1.9,0.4,3.7,0.5,5.6c0.2,3.7,0.2,7.5,0,11.2 c-0.1,1.9-0.3,3.7-0.4,5.6l-0.8,5.5c-1.2,7.3-3.1,14.4-5.6,21.1c-0.5,1.7-1.3,3.4-2,5c-0.7,1.6-1.4,3.3-2.1,4.9l-2.3,4.8 c-0.4,0.8-0.8,1.6-1.2,2.4l-1.3,2.3c-1.8,3.1-3.4,6.2-5.4,9.1l-2.9,4.4c-0.5,0.7-1,1.4-1.5,2.1c-0.5,0.7-1,1.4-1.5,2.1l-3.1,4.2 c-1,1.4-2.2,2.7-3.3,4c-2.2,2.7-4.4,5.4-6.8,7.8c-1.2,1.3-2.3,2.5-3.5,3.8l-1.8,1.9c-0.6,0.6-1.2,1.2-1.9,1.8 C424.7,299.4,422.2,301.8,419.6,304.1z" fill="#b3b3b3"/></g><g id="change3_3"><path d="M591.6,354.6c1.3-2.5,2.6-4.9,4-7.3l1-1.8c0.3-0.6,0.6-1.2,1-1.8c0.6-1.2,1.3-2.4,1.9-3.6l1.9-3.6l1.8-3.7 c0.6-1.2,1.2-2.4,1.8-3.6c0.3-0.6,0.6-1.2,0.9-1.8l0.8-1.8c4.5-9.7,8.4-19.7,11-29.7l0.5-1.9c0.2-0.6,0.3-1.3,0.4-1.9l0.8-3.8 c0.2-1.3,0.4-2.5,0.6-3.8l0.3-1.9c0.1-0.6,0.1-1.3,0.2-1.9c0.7-5,0.8-10,0.6-15c-0.2-5-0.8-9.8-1.9-14.7c-0.2-1.2-0.6-2.4-0.9-3.6 c-0.4-1.2-0.7-2.4-1.1-3.6c-0.7-2.4-1.6-4.8-2.5-7.2c-3.7-9.5-8.7-19.2-12.9-29.9c-0.5-1.3-1-2.7-1.5-4c-0.5-1.4-1-2.7-1.4-4.1 c-0.9-2.8-1.7-5.6-2.3-8.4c-0.3-1.4-0.7-2.9-0.9-4.3l-0.4-2.2l-0.3-2.2c-0.2-1.5-0.4-2.9-0.5-4.4c-0.1-1.5-0.2-2.9-0.3-4.4 c-0.6-11.7,0.9-23.3,4-34.2c1.6-5.5,3.6-10.8,6-15.8c2.4-5.1,5.2-9.9,8.4-14.5c-0.7,2.7-1.4,5.3-2.1,8c-0.7,2.7-1.2,5.3-1.8,8 c-0.3,1.3-0.5,2.7-0.7,4c-0.2,1.3-0.5,2.6-0.6,4c-0.2,1.3-0.4,2.6-0.5,4l-0.2,2l-0.2,2c-0.9,10.6-0.6,21.1,1.1,31.2 c0.2,1.3,0.5,2.5,0.7,3.8c0.3,1.2,0.5,2.5,0.9,3.7l0.5,1.8l0.5,1.8c0.3,1.2,0.7,2.4,1.1,3.6c1.6,4.8,3.5,9.6,5.7,14.3 c2.2,4.8,4.6,9.5,7,14.5c1.2,2.5,2.4,5,3.6,7.6c1.2,2.6,2.3,5.2,3.3,8c2.1,5.4,3.9,11.2,5,17.1c1.2,5.9,1.7,11.9,1.6,17.9l0,2.2 l-0.1,2.2l-0.2,2.2l-0.1,1.1l-0.1,1.1c-0.2,1.5-0.4,2.9-0.6,4.4c-0.3,1.5-0.6,2.9-0.8,4.3c-0.2,0.7-0.3,1.4-0.5,2.2l-0.5,2.1 l-0.6,2.1c-0.2,0.7-0.3,1.4-0.6,2.1L632,296c-0.2,0.7-0.4,1.4-0.7,2.1l-0.8,2c-4.2,10.8-9.9,20.7-16.6,29.8l-1.2,1.7 c-0.4,0.6-0.8,1.1-1.3,1.7c-0.9,1.1-1.7,2.2-2.6,3.3l-2.6,3.2c-0.9,1.1-1.9,2.1-2.8,3.1c-0.9,1-1.9,2.1-2.8,3.1 c-0.5,0.5-0.9,1-1.4,1.5l-1.5,1.5C595.6,350.8,593.6,352.8,591.6,354.6z" fill="#b3b3b3"/></g></g></svg>